<mxfile host="app.diagrams.net" modified="2020-09-12T23:23:20.552Z" agent="5.0 (Windows)" etag="9hRK4ON_UvATKKy8ECoE" version="13.6.10" type="gitlab">
  <diagram id="beiPa8BHD_OdnOx-yBbd" name="Page-1">
    <mxGraphModel dx="3734" dy="2317" grid="1" gridSize="10" guides="0" tooltips="1" connect="1" arrows="1" fold="1" page="0" pageScale="1" pageWidth="850" pageHeight="1100" math="0" shadow="0">
      <root>
        <mxCell id="0" />
        <mxCell id="1" parent="0" />
        <mxCell id="B4sxJnHl5gxaD_2t0ISS-5" value="" style="ellipse;whiteSpace=wrap;html=1;rotation=130;direction=south;fillColor=#E6E6E6;strokeColor=#E6E6E6;" parent="1" vertex="1">
          <mxGeometry x="165" y="50" width="70" height="60" as="geometry" />
        </mxCell>
        <mxCell id="B4sxJnHl5gxaD_2t0ISS-6" value="" style="ellipse;whiteSpace=wrap;html=1;direction=north;rotation=-45;fillColor=#E6E6E6;strokeColor=#E6E6E6;" parent="1" vertex="1">
          <mxGeometry x="100" y="75" width="120" height="100" as="geometry" />
        </mxCell>
        <mxCell id="B4sxJnHl5gxaD_2t0ISS-17" value="" style="ellipse;whiteSpace=wrap;html=1;rotation=130;direction=south;fillColor=#FFFFFF;" parent="1" vertex="1">
          <mxGeometry x="165" y="50" width="70" height="60" as="geometry" />
        </mxCell>
        <mxCell id="B4sxJnHl5gxaD_2t0ISS-18" value="" style="ellipse;whiteSpace=wrap;html=1;direction=north;rotation=-45;fillColor=#FFFFFF;" parent="1" vertex="1">
          <mxGeometry x="100" y="75" width="120" height="100" as="geometry" />
        </mxCell>
        <mxCell id="B4sxJnHl5gxaD_2t0ISS-19" value="" style="endArrow=classic;html=1;strokeWidth=1;" parent="1" edge="1">
          <mxGeometry width="50" height="50" relative="1" as="geometry">
            <mxPoint x="271.50000000000006" y="187.5" as="sourcePoint" />
            <mxPoint x="271.92" y="325" as="targetPoint" />
          </mxGeometry>
        </mxCell>
        <mxCell id="B4sxJnHl5gxaD_2t0ISS-20" value="" style="endArrow=classic;html=1;strokeWidth=1;" parent="1" edge="1">
          <mxGeometry width="50" height="50" relative="1" as="geometry">
            <mxPoint x="270" y="540" as="sourcePoint" />
            <mxPoint x="270.41999999999985" y="677.4999999999998" as="targetPoint" />
          </mxGeometry>
        </mxCell>
        <mxCell id="B4sxJnHl5gxaD_2t0ISS-21" value="" style="ellipse;whiteSpace=wrap;html=1;rotation=130;direction=south;fillColor=#FFFFFF;" parent="1" vertex="1">
          <mxGeometry x="385" y="62.5" width="70" height="60" as="geometry" />
        </mxCell>
        <mxCell id="B4sxJnHl5gxaD_2t0ISS-22" value="" style="ellipse;whiteSpace=wrap;html=1;direction=north;rotation=-45;fillColor=#FFFFFF;" parent="1" vertex="1">
          <mxGeometry x="320" y="87.5" width="120" height="100" as="geometry" />
        </mxCell>
        <mxCell id="B4sxJnHl5gxaD_2t0ISS-23" value="" style="ellipse;whiteSpace=wrap;html=1;rotation=130;direction=south;fillColor=#FFFFFF;" parent="1" vertex="1">
          <mxGeometry x="385" y="62.5" width="70" height="60" as="geometry" />
        </mxCell>
        <mxCell id="B4sxJnHl5gxaD_2t0ISS-24" value="" style="ellipse;whiteSpace=wrap;html=1;direction=north;rotation=-45;fillColor=#FFFFFF;" parent="1" vertex="1">
          <mxGeometry x="320" y="87.5" width="120" height="100" as="geometry" />
        </mxCell>
        <mxCell id="B4sxJnHl5gxaD_2t0ISS-25" value="" style="ellipse;whiteSpace=wrap;html=1;rotation=130;direction=south;fillColor=#FFFFFF;" parent="1" vertex="1">
          <mxGeometry x="280" y="345.62" width="95" height="80" as="geometry" />
        </mxCell>
        <mxCell id="B4sxJnHl5gxaD_2t0ISS-26" value="" style="ellipse;whiteSpace=wrap;html=1;direction=north;rotation=-45;fillColor=#FFFFFF;" parent="1" vertex="1">
          <mxGeometry x="180.92" y="378.21" width="175" height="149.67" as="geometry" />
        </mxCell>
        <mxCell id="B4sxJnHl5gxaD_2t0ISS-27" value="" style="ellipse;whiteSpace=wrap;html=1;aspect=fixed;strokeColor=#000000;fillColor=#FFFFFF;" parent="1" vertex="1">
          <mxGeometry x="175.8" y="720" width="220" height="220" as="geometry" />
        </mxCell>
        <mxCell id="B4sxJnHl5gxaD_2t0ISS-28" value="" style="ellipse;whiteSpace=wrap;html=1;aspect=fixed;strokeColor=#000000;fillColor=#FFFFFF;" parent="1" vertex="1">
          <mxGeometry x="200" y="750" width="80" height="80" as="geometry" />
        </mxCell>
        <mxCell id="B4sxJnHl5gxaD_2t0ISS-29" value="" style="ellipse;whiteSpace=wrap;html=1;aspect=fixed;strokeColor=#000000;fillColor=#FFFFFF;" parent="1" vertex="1">
          <mxGeometry x="287.5" y="750" width="80" height="80" as="geometry" />
        </mxCell>
        <mxCell id="B4sxJnHl5gxaD_2t0ISS-30" value="" style="ellipse;whiteSpace=wrap;html=1;aspect=fixed;strokeColor=#000000;fillColor=#FFFFFF;" parent="1" vertex="1">
          <mxGeometry x="207.5" y="840" width="80" height="80" as="geometry" />
        </mxCell>
        <mxCell id="B4sxJnHl5gxaD_2t0ISS-31" value="" style="ellipse;whiteSpace=wrap;html=1;aspect=fixed;strokeColor=#000000;fillColor=#FFFFFF;" parent="1" vertex="1">
          <mxGeometry x="292" y="836" width="80" height="80" as="geometry" />
        </mxCell>
        <mxCell id="B4sxJnHl5gxaD_2t0ISS-32" value="&lt;font style=&quot;font-size: 25px&quot; face=&quot;Georgia&quot;&gt;X&lt;/font&gt;" style="text;html=1;align=center;verticalAlign=middle;resizable=0;points=[];autosize=1;" parent="1" vertex="1">
          <mxGeometry x="257.5" y="120" width="30" height="20" as="geometry" />
        </mxCell>
        <mxCell id="B4sxJnHl5gxaD_2t0ISS-33" value="" style="endArrow=classic;html=1;strokeWidth=1;" parent="1" edge="1">
          <mxGeometry width="50" height="50" relative="1" as="geometry">
            <mxPoint x="278" y="970" as="sourcePoint" />
            <mxPoint x="278.4200000000001" y="1107.5" as="targetPoint" />
          </mxGeometry>
        </mxCell>
        <mxCell id="B4sxJnHl5gxaD_2t0ISS-37" value="" style="ellipse;whiteSpace=wrap;html=1;rotation=130;direction=south;fillColor=#FFFFFF;" parent="1" vertex="1">
          <mxGeometry x="75" y="1200" width="70" height="60" as="geometry" />
        </mxCell>
        <mxCell id="B4sxJnHl5gxaD_2t0ISS-38" value="" style="ellipse;whiteSpace=wrap;html=1;direction=north;rotation=-45;fillColor=#FFFFFF;" parent="1" vertex="1">
          <mxGeometry x="10" y="1225" width="120" height="100" as="geometry" />
        </mxCell>
        <mxCell id="B4sxJnHl5gxaD_2t0ISS-39" value="" style="ellipse;whiteSpace=wrap;html=1;rotation=130;direction=south;fillColor=#FFFFFF;" parent="1" vertex="1">
          <mxGeometry x="258.41999999999996" y="1205" width="70" height="60" as="geometry" />
        </mxCell>
        <mxCell id="B4sxJnHl5gxaD_2t0ISS-40" value="" style="ellipse;whiteSpace=wrap;html=1;direction=north;rotation=-45;fillColor=#FFFFFF;" parent="1" vertex="1">
          <mxGeometry x="193.42" y="1230" width="120" height="100" as="geometry" />
        </mxCell>
        <mxCell id="B4sxJnHl5gxaD_2t0ISS-41" value="" style="ellipse;whiteSpace=wrap;html=1;rotation=130;direction=south;fillColor=#FFFFFF;" parent="1" vertex="1">
          <mxGeometry x="415" y="1210" width="70" height="60" as="geometry" />
        </mxCell>
        <mxCell id="B4sxJnHl5gxaD_2t0ISS-42" value="" style="ellipse;whiteSpace=wrap;html=1;direction=north;rotation=-45;fillColor=#FFFFFF;" parent="1" vertex="1">
          <mxGeometry x="350" y="1235" width="120" height="100" as="geometry" />
        </mxCell>
        <mxCell id="B4sxJnHl5gxaD_2t0ISS-43" value="" style="ellipse;whiteSpace=wrap;html=1;rotation=130;direction=south;fillColor=#FFFFFF;" parent="1" vertex="1">
          <mxGeometry x="557.5" y="1217.5" width="70" height="60" as="geometry" />
        </mxCell>
        <mxCell id="B4sxJnHl5gxaD_2t0ISS-44" value="" style="ellipse;whiteSpace=wrap;html=1;direction=north;rotation=-45;fillColor=#FFFFFF;" parent="1" vertex="1">
          <mxGeometry x="492.5" y="1242.5" width="120" height="100" as="geometry" />
        </mxCell>
        <mxCell id="B4sxJnHl5gxaD_2t0ISS-46" value="" style="ellipse;whiteSpace=wrap;html=1;rotation=130;direction=south;fillColor=#FFFFFF;" parent="1" vertex="1">
          <mxGeometry x="272.5" y="1540" width="70" height="60" as="geometry" />
        </mxCell>
        <mxCell id="B4sxJnHl5gxaD_2t0ISS-47" value="" style="ellipse;whiteSpace=wrap;html=1;direction=north;rotation=-45;fillColor=#FFFFFF;" parent="1" vertex="1">
          <mxGeometry x="207.5" y="1565" width="120" height="100" as="geometry" />
        </mxCell>
        <mxCell id="B4sxJnHl5gxaD_2t0ISS-48" value="" style="endArrow=classic;html=1;strokeWidth=1;" parent="1" edge="1">
          <mxGeometry width="50" height="50" relative="1" as="geometry">
            <mxPoint x="280" y="1380" as="sourcePoint" />
            <mxPoint x="280.4200000000001" y="1517.5" as="targetPoint" />
          </mxGeometry>
        </mxCell>
        <mxCell id="B4sxJnHl5gxaD_2t0ISS-50" value="&lt;font face=&quot;Georgia&quot;&gt;&lt;b&gt;&lt;font style=&quot;font-size: 16px&quot;&gt;Mating&lt;/font&gt;&lt;/b&gt;&lt;/font&gt;" style="text;html=1;align=center;verticalAlign=middle;resizable=0;points=[];autosize=1;" parent="1" vertex="1">
          <mxGeometry x="292" y="250" width="70" height="20" as="geometry" />
        </mxCell>
        <mxCell id="B4sxJnHl5gxaD_2t0ISS-51" value="&lt;font face=&quot;Georgia&quot;&gt;&lt;b&gt;&lt;font style=&quot;font-size: 16px&quot;&gt;Sporulation&lt;/font&gt;&lt;/b&gt;&lt;/font&gt;" style="text;html=1;align=center;verticalAlign=middle;resizable=0;points=[];autosize=1;" parent="1" vertex="1">
          <mxGeometry x="287.5" y="590" width="110" height="20" as="geometry" />
        </mxCell>
        <mxCell id="B4sxJnHl5gxaD_2t0ISS-52" value="&lt;div&gt;&lt;font face=&quot;Georgia&quot;&gt;&lt;b&gt;&lt;font style=&quot;font-size: 16px&quot;&gt;Germination&lt;/font&gt;&lt;/b&gt;&lt;/font&gt;&lt;/div&gt;" style="text;html=1;align=center;verticalAlign=middle;resizable=0;points=[];autosize=1;" parent="1" vertex="1">
          <mxGeometry x="295" y="1010" width="120" height="20" as="geometry" />
        </mxCell>
        <mxCell id="B4sxJnHl5gxaD_2t0ISS-53" value="&lt;div&gt;&lt;font face=&quot;Georgia&quot;&gt;&lt;b&gt;&lt;font style=&quot;font-size: 16px&quot;&gt;Haploid Selection&lt;br&gt;&lt;/font&gt;&lt;/b&gt;&lt;/font&gt;&lt;/div&gt;" style="text;html=1;align=center;verticalAlign=middle;resizable=0;points=[];autosize=1;" parent="1" vertex="1">
          <mxGeometry x="300" y="1430" width="160" height="20" as="geometry" />
        </mxCell>
        <mxCell id="B4sxJnHl5gxaD_2t0ISS-54" value="&lt;font face=&quot;Georgia&quot;&gt;&lt;b&gt;&lt;font style=&quot;font-size: 16px&quot;&gt;ORF-GFP::His3&lt;/font&gt;&lt;/b&gt;&lt;/font&gt;" style="text;html=1;align=center;verticalAlign=middle;resizable=0;points=[];autosize=1;" parent="1" vertex="1">
          <mxGeometry x="310" y="200" width="140" height="20" as="geometry" />
        </mxCell>
        <mxCell id="B4sxJnHl5gxaD_2t0ISS-56" value="" style="ellipse;whiteSpace=wrap;html=1;aspect=fixed;strokeColor=#000000;fillColor=#FFFFFF;" parent="1" vertex="1">
          <mxGeometry x="145" y="110" width="30" height="30" as="geometry" />
        </mxCell>
        <mxCell id="B4sxJnHl5gxaD_2t0ISS-57" value="" style="ellipse;whiteSpace=wrap;html=1;aspect=fixed;strokeColor=#2D7600;fillColor=#60a917;fontColor=#ffffff;" parent="1" vertex="1">
          <mxGeometry x="367.5" y="122.5" width="30" height="30" as="geometry" />
        </mxCell>
        <mxCell id="B4sxJnHl5gxaD_2t0ISS-58" value="" style="ellipse;whiteSpace=wrap;html=1;aspect=fixed;strokeColor=#2D7600;fillColor=#60a917;fontColor=#ffffff;" parent="1" vertex="1">
          <mxGeometry x="280" y="438.05" width="30" height="30" as="geometry" />
        </mxCell>
        <mxCell id="B4sxJnHl5gxaD_2t0ISS-59" value="" style="ellipse;whiteSpace=wrap;html=1;aspect=fixed;strokeColor=#000000;fillColor=#FFFFFF;" parent="1" vertex="1">
          <mxGeometry x="228.42000000000002" y="438.05" width="30" height="30" as="geometry" />
        </mxCell>
        <mxCell id="B4sxJnHl5gxaD_2t0ISS-60" value="" style="ellipse;whiteSpace=wrap;html=1;aspect=fixed;strokeColor=#000000;fillColor=#FFFFFF;" parent="1" vertex="1">
          <mxGeometry x="225.00000000000003" y="775" width="30" height="30" as="geometry" />
        </mxCell>
        <mxCell id="B4sxJnHl5gxaD_2t0ISS-62" value="" style="ellipse;whiteSpace=wrap;html=1;aspect=fixed;strokeColor=#000000;fillColor=#FFFFFF;" parent="1" vertex="1">
          <mxGeometry x="313.42" y="775" width="30" height="30" as="geometry" />
        </mxCell>
        <mxCell id="B4sxJnHl5gxaD_2t0ISS-65" value="" style="ellipse;whiteSpace=wrap;html=1;aspect=fixed;strokeColor=#2D7600;fillColor=#60a917;fontColor=#ffffff;" parent="1" vertex="1">
          <mxGeometry x="232.5" y="865" width="30" height="30" as="geometry" />
        </mxCell>
        <mxCell id="B4sxJnHl5gxaD_2t0ISS-68" value="" style="ellipse;whiteSpace=wrap;html=1;aspect=fixed;strokeColor=#000000;fillColor=#FFFFFF;" parent="1" vertex="1">
          <mxGeometry x="320" y="861" width="30" height="30" as="geometry" />
        </mxCell>
        <mxCell id="B4sxJnHl5gxaD_2t0ISS-69" value="" style="ellipse;whiteSpace=wrap;html=1;aspect=fixed;strokeColor=#000000;fillColor=#FFFFFF;" parent="1" vertex="1">
          <mxGeometry x="55.00000000000003" y="1260" width="30" height="30" as="geometry" />
        </mxCell>
        <mxCell id="B4sxJnHl5gxaD_2t0ISS-70" value="" style="ellipse;whiteSpace=wrap;html=1;aspect=fixed;strokeColor=#000000;fillColor=#FFFFFF;" parent="1" vertex="1">
          <mxGeometry x="395" y="1270" width="30" height="30" as="geometry" />
        </mxCell>
        <mxCell id="B4sxJnHl5gxaD_2t0ISS-71" value="" style="ellipse;whiteSpace=wrap;html=1;aspect=fixed;strokeColor=#000000;fillColor=#FFFFFF;" parent="1" vertex="1">
          <mxGeometry x="537.5" y="1277.5" width="30" height="30" as="geometry" />
        </mxCell>
        <mxCell id="B4sxJnHl5gxaD_2t0ISS-72" value="" style="ellipse;whiteSpace=wrap;html=1;aspect=fixed;strokeColor=#2D7600;fillColor=#60a917;fontColor=#ffffff;" parent="1" vertex="1">
          <mxGeometry x="235" y="1270" width="30" height="30" as="geometry" />
        </mxCell>
        <mxCell id="B4sxJnHl5gxaD_2t0ISS-75" value="" style="ellipse;whiteSpace=wrap;html=1;aspect=fixed;strokeColor=#2D7600;fillColor=#60a917;fontColor=#ffffff;" parent="1" vertex="1">
          <mxGeometry x="252.5" y="1600" width="30" height="30" as="geometry" />
        </mxCell>
        <mxCell id="B4sxJnHl5gxaD_2t0ISS-78" value="&lt;font face=&quot;Georgia&quot;&gt;&lt;b&gt;&lt;font style=&quot;font-size: 16px&quot;&gt;MATa&lt;/font&gt;&lt;/b&gt;&lt;/font&gt;" style="text;html=1;align=center;verticalAlign=middle;resizable=0;points=[];autosize=1;" parent="1" vertex="1">
          <mxGeometry x="455" y="122.5" width="60" height="20" as="geometry" />
        </mxCell>
        <mxCell id="B4sxJnHl5gxaD_2t0ISS-79" value="&lt;font face=&quot;Georgia&quot;&gt;&lt;b&gt;&lt;font style=&quot;font-size: 16px&quot;&gt;MATα&lt;/font&gt;&lt;/b&gt;&lt;/font&gt;" style="text;html=1;align=center;verticalAlign=middle;resizable=0;points=[];autosize=1;" parent="1" vertex="1">
          <mxGeometry x="20" y="127.5" width="70" height="20" as="geometry" />
        </mxCell>
      </root>
    </mxGraphModel>
  </diagram>
</mxfile>
